<svg xmlns="http://www.w3.org/2000/svg" width="540" height="540" viewBox="0 0 540 540" shape-rendering="crispEdges"><rect width="100%" height="100%" fill="#FFFFFF"/><g fill="#001E5C"><rect x="48" y="48" width="12" height="12"/><rect x="60" y="48" width="12" height="12"/><rect x="72" y="48" width="12" height="12"/><rect x="84" y="48" width="12" height="12"/><rect x="96" y="48" width="12" height="12"/><rect x="108" y="48" width="12" height="12"/><rect x="120" y="48" width="12" height="12"/><rect x="144" y="48" width="12" height="12"/><rect x="168" y="48" width="12" height="12"/><rect x="192" y="48" width="12" height="12"/><rect x="240" y="48" width="12" height="12"/><rect x="252" y="48" width="12" height="12"/><rect x="264" y="48" width="12" height="12"/><rect x="276" y="48" width="12" height="12"/><rect x="288" y="48" width="12" height="12"/><rect x="300" y="48" width="12" height="12"/><rect x="312" y="48" width="12" height="12"/><rect x="324" y="48" width="12" height="12"/><rect x="336" y="48" width="12" height="12"/><rect x="348" y="48" width="12" height="12"/><rect x="360" y="48" width="12" height="12"/><rect x="408" y="48" width="12" height="12"/><rect x="420" y="48" width="12" height="12"/><rect x="432" y="48" width="12" height="12"/><rect x="444" y="48" width="12" height="12"/><rect x="456" y="48" width="12" height="12"/><rect x="468" y="48" width="12" height="12"/><rect x="480" y="48" width="12" height="12"/><rect x="48" y="60" width="12" height="12"/><rect x="120" y="60" width="12" height="12"/><rect x="144" y="60" width="12" height="12"/><rect x="168" y="60" width="12" height="12"/><rect x="216" y="60" width="12" height="12"/><rect x="228" y="60" width="12" height="12"/><rect x="240" y="60" width="12" height="12"/><rect x="252" y="60" width="12" height="12"/><rect x="264" y="60" width="12" height="12"/><rect x="300" y="60" width="12" height="12"/><rect x="348" y="60" width="12" height="12"/><rect x="360" y="60" width="12" height="12"/><rect x="372" y="60" width="12" height="12"/><rect x="384" y="60" width="12" height="12"/><rect x="408" y="60" width="12" height="12"/><rect x="480" y="60" width="12" height="12"/><rect x="48" y="72" width="12" height="12"/><rect x="72" y="72" width="12" height="12"/><rect x="84" y="72" width="12" height="12"/><rect x="96" y="72" width="12" height="12"/><rect x="120" y="72" width="12" height="12"/><rect x="144" y="72" width="12" height="12"/><rect x="192" y="72" width="12" height="12"/><rect x="216" y="72" width="12" height="12"/><rect x="228" y="72" width="12" height="12"/><rect x="276" y="72" width="12" height="12"/><rect x="288" y="72" width="12" height="12"/><rect x="300" y="72" width="12" height="12"/><rect x="336" y="72" width="12" height="12"/><rect x="360" y="72" width="12" height="12"/><rect x="372" y="72" width="12" height="12"/><rect x="408" y="72" width="12" height="12"/><rect x="432" y="72" width="12" height="12"/><rect x="444" y="72" width="12" height="12"/><rect x="456" y="72" width="12" height="12"/><rect x="480" y="72" width="12" height="12"/><rect x="48" y="84" width="12" height="12"/><rect x="72" y="84" width="12" height="12"/><rect x="84" y="84" width="12" height="12"/><rect x="96" y="84" width="12" height="12"/><rect x="120" y="84" width="12" height="12"/><rect x="144" y="84" width="12" height="12"/><rect x="156" y="84" width="12" height="12"/><rect x="168" y="84" width="12" height="12"/><rect x="192" y="84" width="12" height="12"/><rect x="204" y="84" width="12" height="12"/><rect x="216" y="84" width="12" height="12"/><rect x="228" y="84" width="12" height="12"/><rect x="252" y="84" width="12" height="12"/><rect x="264" y="84" width="12" height="12"/><rect x="312" y="84" width="12" height="12"/><rect x="324" y="84" width="12" height="12"/><rect x="348" y="84" width="12" height="12"/><rect x="360" y="84" width="12" height="12"/><rect x="384" y="84" width="12" height="12"/><rect x="408" y="84" width="12" height="12"/><rect x="432" y="84" width="12" height="12"/><rect x="444" y="84" width="12" height="12"/><rect x="456" y="84" width="12" height="12"/><rect x="480" y="84" width="12" height="12"/><rect x="48" y="96" width="12" height="12"/><rect x="72" y="96" width="12" height="12"/><rect x="84" y="96" width="12" height="12"/><rect x="96" y="96" width="12" height="12"/><rect x="120" y="96" width="12" height="12"/><rect x="144" y="96" width="12" height="12"/><rect x="156" y="96" width="12" height="12"/><rect x="240" y="96" width="12" height="12"/><rect x="252" y="96" width="12" height="12"/><rect x="276" y="96" width="12" height="12"/><rect x="288" y="96" width="12" height="12"/><rect x="300" y="96" width="12" height="12"/><rect x="312" y="96" width="12" height="12"/><rect x="324" y="96" width="12" height="12"/><rect x="384" y="96" width="12" height="12"/><rect x="408" y="96" width="12" height="12"/><rect x="432" y="96" width="12" height="12"/><rect x="444" y="96" width="12" height="12"/><rect x="456" y="96" width="12" height="12"/><rect x="480" y="96" width="12" height="12"/><rect x="48" y="108" width="12" height="12"/><rect x="120" y="108" width="12" height="12"/><rect x="156" y="108" width="12" height="12"/><rect x="180" y="108" width="12" height="12"/><rect x="192" y="108" width="12" height="12"/><rect x="204" y="108" width="12" height="12"/><rect x="228" y="108" width="12" height="12"/><rect x="264" y="108" width="12" height="12"/><rect x="372" y="108" width="12" height="12"/><rect x="408" y="108" width="12" height="12"/><rect x="480" y="108" width="12" height="12"/><rect x="48" y="120" width="12" height="12"/><rect x="60" y="120" width="12" height="12"/><rect x="72" y="120" width="12" height="12"/><rect x="84" y="120" width="12" height="12"/><rect x="96" y="120" width="12" height="12"/><rect x="108" y="120" width="12" height="12"/><rect x="120" y="120" width="12" height="12"/><rect x="144" y="120" width="12" height="12"/><rect x="168" y="120" width="12" height="12"/><rect x="192" y="120" width="12" height="12"/><rect x="216" y="120" width="12" height="12"/><rect x="240" y="120" width="12" height="12"/><rect x="264" y="120" width="12" height="12"/><rect x="288" y="120" width="12" height="12"/><rect x="312" y="120" width="12" height="12"/><rect x="336" y="120" width="12" height="12"/><rect x="360" y="120" width="12" height="12"/><rect x="384" y="120" width="12" height="12"/><rect x="408" y="120" width="12" height="12"/><rect x="420" y="120" width="12" height="12"/><rect x="432" y="120" width="12" height="12"/><rect x="444" y="120" width="12" height="12"/><rect x="456" y="120" width="12" height="12"/><rect x="468" y="120" width="12" height="12"/><rect x="480" y="120" width="12" height="12"/><rect x="144" y="132" width="12" height="12"/><rect x="156" y="132" width="12" height="12"/><rect x="168" y="132" width="12" height="12"/><rect x="180" y="132" width="12" height="12"/><rect x="228" y="132" width="12" height="12"/><rect x="240" y="132" width="12" height="12"/><rect x="264" y="132" width="12" height="12"/><rect x="276" y="132" width="12" height="12"/><rect x="300" y="132" width="12" height="12"/><rect x="324" y="132" width="12" height="12"/><rect x="336" y="132" width="12" height="12"/><rect x="360" y="132" width="12" height="12"/><rect x="384" y="132" width="12" height="12"/><rect x="60" y="144" width="12" height="12"/><rect x="84" y="144" width="12" height="12"/><rect x="108" y="144" width="12" height="12"/><rect x="120" y="144" width="12" height="12"/><rect x="144" y="144" width="12" height="12"/><rect x="156" y="144" width="12" height="12"/><rect x="180" y="144" width="12" height="12"/><rect x="204" y="144" width="12" height="12"/><rect x="228" y="144" width="12" height="12"/><rect x="240" y="144" width="12" height="12"/><rect x="252" y="144" width="12" height="12"/><rect x="288" y="144" width="12" height="12"/><rect x="348" y="144" width="12" height="12"/><rect x="360" y="144" width="12" height="12"/><rect x="372" y="144" width="12" height="12"/><rect x="408" y="144" width="12" height="12"/><rect x="432" y="144" width="12" height="12"/><rect x="444" y="144" width="12" height="12"/><rect x="456" y="144" width="12" height="12"/><rect x="468" y="144" width="12" height="12"/><rect x="480" y="144" width="12" height="12"/><rect x="132" y="156" width="12" height="12"/><rect x="144" y="156" width="12" height="12"/><rect x="156" y="156" width="12" height="12"/><rect x="168" y="156" width="12" height="12"/><rect x="192" y="156" width="12" height="12"/><rect x="216" y="156" width="12" height="12"/><rect x="252" y="156" width="12" height="12"/><rect x="264" y="156" width="12" height="12"/><rect x="276" y="156" width="12" height="12"/><rect x="288" y="156" width="12" height="12"/><rect x="312" y="156" width="12" height="12"/><rect x="324" y="156" width="12" height="12"/><rect x="384" y="156" width="12" height="12"/><rect x="396" y="156" width="12" height="12"/><rect x="420" y="156" width="12" height="12"/><rect x="444" y="156" width="12" height="12"/><rect x="456" y="156" width="12" height="12"/><rect x="468" y="156" width="12" height="12"/><rect x="72" y="168" width="12" height="12"/><rect x="84" y="168" width="12" height="12"/><rect x="96" y="168" width="12" height="12"/><rect x="108" y="168" width="12" height="12"/><rect x="120" y="168" width="12" height="12"/><rect x="144" y="168" width="12" height="12"/><rect x="168" y="168" width="12" height="12"/><rect x="228" y="168" width="12" height="12"/><rect x="288" y="168" width="12" height="12"/><rect x="300" y="168" width="12" height="12"/><rect x="336" y="168" width="12" height="12"/><rect x="360" y="168" width="12" height="12"/><rect x="372" y="168" width="12" height="12"/><rect x="384" y="168" width="12" height="12"/><rect x="408" y="168" width="12" height="12"/><rect x="420" y="168" width="12" height="12"/><rect x="444" y="168" width="12" height="12"/><rect x="456" y="168" width="12" height="12"/><rect x="480" y="168" width="12" height="12"/><rect x="48" y="180" width="12" height="12"/><rect x="96" y="180" width="12" height="12"/><rect x="108" y="180" width="12" height="12"/><rect x="192" y="180" width="12" height="12"/><rect x="216" y="180" width="12" height="12"/><rect x="228" y="180" width="12" height="12"/><rect x="240" y="180" width="12" height="12"/><rect x="264" y="180" width="12" height="12"/><rect x="300" y="180" width="12" height="12"/><rect x="324" y="180" width="12" height="12"/><rect x="372" y="180" width="12" height="12"/><rect x="408" y="180" width="12" height="12"/><rect x="432" y="180" width="12" height="12"/><rect x="444" y="180" width="12" height="12"/><rect x="468" y="180" width="12" height="12"/><rect x="60" y="192" width="12" height="12"/><rect x="72" y="192" width="12" height="12"/><rect x="84" y="192" width="12" height="12"/><rect x="120" y="192" width="12" height="12"/><rect x="144" y="192" width="12" height="12"/><rect x="168" y="192" width="12" height="12"/><rect x="192" y="192" width="12" height="12"/><rect x="204" y="192" width="12" height="12"/><rect x="216" y="192" width="12" height="12"/><rect x="228" y="192" width="12" height="12"/><rect x="240" y="192" width="12" height="12"/><rect x="252" y="192" width="12" height="12"/><rect x="312" y="192" width="12" height="12"/><rect x="324" y="192" width="12" height="12"/><rect x="336" y="192" width="12" height="12"/><rect x="348" y="192" width="12" height="12"/><rect x="360" y="192" width="12" height="12"/><rect x="396" y="192" width="12" height="12"/><rect x="408" y="192" width="12" height="12"/><rect x="420" y="192" width="12" height="12"/><rect x="432" y="192" width="12" height="12"/><rect x="444" y="192" width="12" height="12"/><rect x="456" y="192" width="12" height="12"/><rect x="480" y="192" width="12" height="12"/><rect x="48" y="204" width="12" height="12"/><rect x="60" y="204" width="12" height="12"/><rect x="72" y="204" width="12" height="12"/><rect x="84" y="204" width="12" height="12"/><rect x="108" y="204" width="12" height="12"/><rect x="156" y="204" width="12" height="12"/><rect x="168" y="204" width="12" height="12"/><rect x="264" y="204" width="12" height="12"/><rect x="276" y="204" width="12" height="12"/><rect x="288" y="204" width="12" height="12"/><rect x="324" y="204" width="12" height="12"/><rect x="384" y="204" width="12" height="12"/><rect x="396" y="204" width="12" height="12"/><rect x="420" y="204" width="12" height="12"/><rect x="456" y="204" width="12" height="12"/><rect x="468" y="204" width="12" height="12"/><rect x="84" y="216" width="12" height="12"/><rect x="120" y="216" width="12" height="12"/><rect x="132" y="216" width="12" height="12"/><rect x="180" y="216" width="12" height="12"/><rect x="192" y="216" width="12" height="12"/><rect x="204" y="216" width="12" height="12"/><rect x="216" y="216" width="12" height="12"/><rect x="228" y="216" width="12" height="12"/><rect x="288" y="216" width="12" height="12"/><rect x="360" y="216" width="12" height="12"/><rect x="372" y="216" width="12" height="12"/><rect x="396" y="216" width="12" height="12"/><rect x="408" y="216" width="12" height="12"/><rect x="432" y="216" width="12" height="12"/><rect x="456" y="216" width="12" height="12"/><rect x="468" y="216" width="12" height="12"/><rect x="480" y="216" width="12" height="12"/><rect x="84" y="228" width="12" height="12"/><rect x="96" y="228" width="12" height="12"/><rect x="132" y="228" width="12" height="12"/><rect x="168" y="228" width="12" height="12"/><rect x="180" y="228" width="12" height="12"/><rect x="300" y="228" width="12" height="12"/><rect x="312" y="228" width="12" height="12"/><rect x="324" y="228" width="12" height="12"/><rect x="336" y="228" width="12" height="12"/><rect x="408" y="228" width="12" height="12"/><rect x="444" y="228" width="12" height="12"/><rect x="480" y="228" width="12" height="12"/><rect x="72" y="240" width="12" height="12"/><rect x="84" y="240" width="12" height="12"/><rect x="120" y="240" width="12" height="12"/><rect x="144" y="240" width="12" height="12"/><rect x="180" y="240" width="12" height="12"/><rect x="204" y="240" width="12" height="12"/><rect x="216" y="240" width="12" height="12"/><rect x="228" y="240" width="12" height="12"/><rect x="252" y="240" width="12" height="12"/><rect x="288" y="240" width="12" height="12"/><rect x="312" y="240" width="12" height="12"/><rect x="324" y="240" width="12" height="12"/><rect x="336" y="240" width="12" height="12"/><rect x="348" y="240" width="12" height="12"/><rect x="360" y="240" width="12" height="12"/><rect x="372" y="240" width="12" height="12"/><rect x="384" y="240" width="12" height="12"/><rect x="396" y="240" width="12" height="12"/><rect x="408" y="240" width="12" height="12"/><rect x="420" y="240" width="12" height="12"/><rect x="432" y="240" width="12" height="12"/><rect x="444" y="240" width="12" height="12"/><rect x="456" y="240" width="12" height="12"/><rect x="480" y="240" width="12" height="12"/><rect x="48" y="252" width="12" height="12"/><rect x="72" y="252" width="12" height="12"/><rect x="84" y="252" width="12" height="12"/><rect x="132" y="252" width="12" height="12"/><rect x="144" y="252" width="12" height="12"/><rect x="156" y="252" width="12" height="12"/><rect x="192" y="252" width="12" height="12"/><rect x="240" y="252" width="12" height="12"/><rect x="276" y="252" width="12" height="12"/><rect x="288" y="252" width="12" height="12"/><rect x="324" y="252" width="12" height="12"/><rect x="360" y="252" width="12" height="12"/><rect x="384" y="252" width="12" height="12"/><rect x="420" y="252" width="12" height="12"/><rect x="456" y="252" width="12" height="12"/><rect x="468" y="252" width="12" height="12"/><rect x="84" y="264" width="12" height="12"/><rect x="96" y="264" width="12" height="12"/><rect x="108" y="264" width="12" height="12"/><rect x="120" y="264" width="12" height="12"/><rect x="144" y="264" width="12" height="12"/><rect x="156" y="264" width="12" height="12"/><rect x="168" y="264" width="12" height="12"/><rect x="228" y="264" width="12" height="12"/><rect x="240" y="264" width="12" height="12"/><rect x="252" y="264" width="12" height="12"/><rect x="264" y="264" width="12" height="12"/><rect x="300" y="264" width="12" height="12"/><rect x="312" y="264" width="12" height="12"/><rect x="336" y="264" width="12" height="12"/><rect x="348" y="264" width="12" height="12"/><rect x="372" y="264" width="12" height="12"/><rect x="384" y="264" width="12" height="12"/><rect x="396" y="264" width="12" height="12"/><rect x="420" y="264" width="12" height="12"/><rect x="432" y="264" width="12" height="12"/><rect x="456" y="264" width="12" height="12"/><rect x="468" y="264" width="12" height="12"/><rect x="480" y="264" width="12" height="12"/><rect x="60" y="276" width="12" height="12"/><rect x="84" y="276" width="12" height="12"/><rect x="192" y="276" width="12" height="12"/><rect x="216" y="276" width="12" height="12"/><rect x="228" y="276" width="12" height="12"/><rect x="264" y="276" width="12" height="12"/><rect x="276" y="276" width="12" height="12"/><rect x="300" y="276" width="12" height="12"/><rect x="324" y="276" width="12" height="12"/><rect x="372" y="276" width="12" height="12"/><rect x="384" y="276" width="12" height="12"/><rect x="396" y="276" width="12" height="12"/><rect x="480" y="276" width="12" height="12"/><rect x="48" y="288" width="12" height="12"/><rect x="60" y="288" width="12" height="12"/><rect x="84" y="288" width="12" height="12"/><rect x="96" y="288" width="12" height="12"/><rect x="120" y="288" width="12" height="12"/><rect x="156" y="288" width="12" height="12"/><rect x="192" y="288" width="12" height="12"/><rect x="204" y="288" width="12" height="12"/><rect x="240" y="288" width="12" height="12"/><rect x="252" y="288" width="12" height="12"/><rect x="276" y="288" width="12" height="12"/><rect x="288" y="288" width="12" height="12"/><rect x="312" y="288" width="12" height="12"/><rect x="348" y="288" width="12" height="12"/><rect x="372" y="288" width="12" height="12"/><rect x="408" y="288" width="12" height="12"/><rect x="432" y="288" width="12" height="12"/><rect x="444" y="288" width="12" height="12"/><rect x="456" y="288" width="12" height="12"/><rect x="468" y="288" width="12" height="12"/><rect x="480" y="288" width="12" height="12"/><rect x="96" y="300" width="12" height="12"/><rect x="108" y="300" width="12" height="12"/><rect x="156" y="300" width="12" height="12"/><rect x="168" y="300" width="12" height="12"/><rect x="216" y="300" width="12" height="12"/><rect x="276" y="300" width="12" height="12"/><rect x="288" y="300" width="12" height="12"/><rect x="324" y="300" width="12" height="12"/><rect x="348" y="300" width="12" height="12"/><rect x="360" y="300" width="12" height="12"/><rect x="384" y="300" width="12" height="12"/><rect x="420" y="300" width="12" height="12"/><rect x="444" y="300" width="12" height="12"/><rect x="468" y="300" width="12" height="12"/><rect x="48" y="312" width="12" height="12"/><rect x="60" y="312" width="12" height="12"/><rect x="72" y="312" width="12" height="12"/><rect x="84" y="312" width="12" height="12"/><rect x="108" y="312" width="12" height="12"/><rect x="120" y="312" width="12" height="12"/><rect x="156" y="312" width="12" height="12"/><rect x="180" y="312" width="12" height="12"/><rect x="192" y="312" width="12" height="12"/><rect x="228" y="312" width="12" height="12"/><rect x="252" y="312" width="12" height="12"/><rect x="264" y="312" width="12" height="12"/><rect x="300" y="312" width="12" height="12"/><rect x="312" y="312" width="12" height="12"/><rect x="336" y="312" width="12" height="12"/><rect x="360" y="312" width="12" height="12"/><rect x="372" y="312" width="12" height="12"/><rect x="396" y="312" width="12" height="12"/><rect x="420" y="312" width="12" height="12"/><rect x="468" y="312" width="12" height="12"/><rect x="480" y="312" width="12" height="12"/><rect x="48" y="324" width="12" height="12"/><rect x="72" y="324" width="12" height="12"/><rect x="84" y="324" width="12" height="12"/><rect x="144" y="324" width="12" height="12"/><rect x="168" y="324" width="12" height="12"/><rect x="180" y="324" width="12" height="12"/><rect x="228" y="324" width="12" height="12"/><rect x="240" y="324" width="12" height="12"/><rect x="264" y="324" width="12" height="12"/><rect x="276" y="324" width="12" height="12"/><rect x="288" y="324" width="12" height="12"/><rect x="300" y="324" width="12" height="12"/><rect x="324" y="324" width="12" height="12"/><rect x="336" y="324" width="12" height="12"/><rect x="360" y="324" width="12" height="12"/><rect x="384" y="324" width="12" height="12"/><rect x="420" y="324" width="12" height="12"/><rect x="432" y="324" width="12" height="12"/><rect x="480" y="324" width="12" height="12"/><rect x="60" y="336" width="12" height="12"/><rect x="72" y="336" width="12" height="12"/><rect x="84" y="336" width="12" height="12"/><rect x="120" y="336" width="12" height="12"/><rect x="144" y="336" width="12" height="12"/><rect x="156" y="336" width="12" height="12"/><rect x="180" y="336" width="12" height="12"/><rect x="204" y="336" width="12" height="12"/><rect x="228" y="336" width="12" height="12"/><rect x="240" y="336" width="12" height="12"/><rect x="252" y="336" width="12" height="12"/><rect x="264" y="336" width="12" height="12"/><rect x="312" y="336" width="12" height="12"/><rect x="348" y="336" width="12" height="12"/><rect x="360" y="336" width="12" height="12"/><rect x="372" y="336" width="12" height="12"/><rect x="384" y="336" width="12" height="12"/><rect x="396" y="336" width="12" height="12"/><rect x="408" y="336" width="12" height="12"/><rect x="432" y="336" width="12" height="12"/><rect x="444" y="336" width="12" height="12"/><rect x="456" y="336" width="12" height="12"/><rect x="468" y="336" width="12" height="12"/><rect x="480" y="336" width="12" height="12"/><rect x="48" y="348" width="12" height="12"/><rect x="60" y="348" width="12" height="12"/><rect x="84" y="348" width="12" height="12"/><rect x="96" y="348" width="12" height="12"/><rect x="108" y="348" width="12" height="12"/><rect x="132" y="348" width="12" height="12"/><rect x="144" y="348" width="12" height="12"/><rect x="168" y="348" width="12" height="12"/><rect x="192" y="348" width="12" height="12"/><rect x="216" y="348" width="12" height="12"/><rect x="264" y="348" width="12" height="12"/><rect x="276" y="348" width="12" height="12"/><rect x="288" y="348" width="12" height="12"/><rect x="300" y="348" width="12" height="12"/><rect x="324" y="348" width="12" height="12"/><rect x="384" y="348" width="12" height="12"/><rect x="456" y="348" width="12" height="12"/><rect x="468" y="348" width="12" height="12"/><rect x="48" y="360" width="12" height="12"/><rect x="84" y="360" width="12" height="12"/><rect x="96" y="360" width="12" height="12"/><rect x="120" y="360" width="12" height="12"/><rect x="132" y="360" width="12" height="12"/><rect x="144" y="360" width="12" height="12"/><rect x="156" y="360" width="12" height="12"/><rect x="228" y="360" width="12" height="12"/><rect x="240" y="360" width="12" height="12"/><rect x="252" y="360" width="12" height="12"/><rect x="312" y="360" width="12" height="12"/><rect x="336" y="360" width="12" height="12"/><rect x="372" y="360" width="12" height="12"/><rect x="384" y="360" width="12" height="12"/><rect x="408" y="360" width="12" height="12"/><rect x="432" y="360" width="12" height="12"/><rect x="444" y="360" width="12" height="12"/><rect x="468" y="360" width="12" height="12"/><rect x="480" y="360" width="12" height="12"/><rect x="48" y="372" width="12" height="12"/><rect x="72" y="372" width="12" height="12"/><rect x="84" y="372" width="12" height="12"/><rect x="108" y="372" width="12" height="12"/><rect x="156" y="372" width="12" height="12"/><rect x="168" y="372" width="12" height="12"/><rect x="192" y="372" width="12" height="12"/><rect x="228" y="372" width="12" height="12"/><rect x="240" y="372" width="12" height="12"/><rect x="264" y="372" width="12" height="12"/><rect x="288" y="372" width="12" height="12"/><rect x="300" y="372" width="12" height="12"/><rect x="312" y="372" width="12" height="12"/><rect x="324" y="372" width="12" height="12"/><rect x="336" y="372" width="12" height="12"/><rect x="360" y="372" width="12" height="12"/><rect x="384" y="372" width="12" height="12"/><rect x="396" y="372" width="12" height="12"/><rect x="420" y="372" width="12" height="12"/><rect x="432" y="372" width="12" height="12"/><rect x="480" y="372" width="12" height="12"/><rect x="48" y="384" width="12" height="12"/><rect x="72" y="384" width="12" height="12"/><rect x="96" y="384" width="12" height="12"/><rect x="120" y="384" width="12" height="12"/><rect x="132" y="384" width="12" height="12"/><rect x="156" y="384" width="12" height="12"/><rect x="192" y="384" width="12" height="12"/><rect x="204" y="384" width="12" height="12"/><rect x="240" y="384" width="12" height="12"/><rect x="252" y="384" width="12" height="12"/><rect x="276" y="384" width="12" height="12"/><rect x="348" y="384" width="12" height="12"/><rect x="360" y="384" width="12" height="12"/><rect x="384" y="384" width="12" height="12"/><rect x="396" y="384" width="12" height="12"/><rect x="408" y="384" width="12" height="12"/><rect x="420" y="384" width="12" height="12"/><rect x="432" y="384" width="12" height="12"/><rect x="444" y="384" width="12" height="12"/><rect x="456" y="384" width="12" height="12"/><rect x="144" y="396" width="12" height="12"/><rect x="156" y="396" width="12" height="12"/><rect x="204" y="396" width="12" height="12"/><rect x="216" y="396" width="12" height="12"/><rect x="252" y="396" width="12" height="12"/><rect x="264" y="396" width="12" height="12"/><rect x="276" y="396" width="12" height="12"/><rect x="288" y="396" width="12" height="12"/><rect x="300" y="396" width="12" height="12"/><rect x="312" y="396" width="12" height="12"/><rect x="324" y="396" width="12" height="12"/><rect x="348" y="396" width="12" height="12"/><rect x="372" y="396" width="12" height="12"/><rect x="384" y="396" width="12" height="12"/><rect x="432" y="396" width="12" height="12"/><rect x="444" y="396" width="12" height="12"/><rect x="48" y="408" width="12" height="12"/><rect x="60" y="408" width="12" height="12"/><rect x="72" y="408" width="12" height="12"/><rect x="84" y="408" width="12" height="12"/><rect x="96" y="408" width="12" height="12"/><rect x="108" y="408" width="12" height="12"/><rect x="120" y="408" width="12" height="12"/><rect x="156" y="408" width="12" height="12"/><rect x="180" y="408" width="12" height="12"/><rect x="192" y="408" width="12" height="12"/><rect x="228" y="408" width="12" height="12"/><rect x="264" y="408" width="12" height="12"/><rect x="288" y="408" width="12" height="12"/><rect x="336" y="408" width="12" height="12"/><rect x="360" y="408" width="12" height="12"/><rect x="384" y="408" width="12" height="12"/><rect x="408" y="408" width="12" height="12"/><rect x="432" y="408" width="12" height="12"/><rect x="468" y="408" width="12" height="12"/><rect x="480" y="408" width="12" height="12"/><rect x="48" y="420" width="12" height="12"/><rect x="120" y="420" width="12" height="12"/><rect x="144" y="420" width="12" height="12"/><rect x="180" y="420" width="12" height="12"/><rect x="216" y="420" width="12" height="12"/><rect x="228" y="420" width="12" height="12"/><rect x="264" y="420" width="12" height="12"/><rect x="288" y="420" width="12" height="12"/><rect x="300" y="420" width="12" height="12"/><rect x="324" y="420" width="12" height="12"/><rect x="336" y="420" width="12" height="12"/><rect x="372" y="420" width="12" height="12"/><rect x="384" y="420" width="12" height="12"/><rect x="432" y="420" width="12" height="12"/><rect x="480" y="420" width="12" height="12"/><rect x="48" y="432" width="12" height="12"/><rect x="72" y="432" width="12" height="12"/><rect x="84" y="432" width="12" height="12"/><rect x="96" y="432" width="12" height="12"/><rect x="120" y="432" width="12" height="12"/><rect x="156" y="432" width="12" height="12"/><rect x="180" y="432" width="12" height="12"/><rect x="192" y="432" width="12" height="12"/><rect x="204" y="432" width="12" height="12"/><rect x="252" y="432" width="12" height="12"/><rect x="324" y="432" width="12" height="12"/><rect x="336" y="432" width="12" height="12"/><rect x="348" y="432" width="12" height="12"/><rect x="360" y="432" width="12" height="12"/><rect x="372" y="432" width="12" height="12"/><rect x="384" y="432" width="12" height="12"/><rect x="396" y="432" width="12" height="12"/><rect x="408" y="432" width="12" height="12"/><rect x="420" y="432" width="12" height="12"/><rect x="432" y="432" width="12" height="12"/><rect x="444" y="432" width="12" height="12"/><rect x="456" y="432" width="12" height="12"/><rect x="480" y="432" width="12" height="12"/><rect x="48" y="444" width="12" height="12"/><rect x="72" y="444" width="12" height="12"/><rect x="84" y="444" width="12" height="12"/><rect x="96" y="444" width="12" height="12"/><rect x="120" y="444" width="12" height="12"/><rect x="144" y="444" width="12" height="12"/><rect x="156" y="444" width="12" height="12"/><rect x="192" y="444" width="12" height="12"/><rect x="216" y="444" width="12" height="12"/><rect x="240" y="444" width="12" height="12"/><rect x="264" y="444" width="12" height="12"/><rect x="276" y="444" width="12" height="12"/><rect x="288" y="444" width="12" height="12"/><rect x="312" y="444" width="12" height="12"/><rect x="324" y="444" width="12" height="12"/><rect x="396" y="444" width="12" height="12"/><rect x="408" y="444" width="12" height="12"/><rect x="432" y="444" width="12" height="12"/><rect x="48" y="456" width="12" height="12"/><rect x="72" y="456" width="12" height="12"/><rect x="84" y="456" width="12" height="12"/><rect x="96" y="456" width="12" height="12"/><rect x="120" y="456" width="12" height="12"/><rect x="192" y="456" width="12" height="12"/><rect x="204" y="456" width="12" height="12"/><rect x="216" y="456" width="12" height="12"/><rect x="228" y="456" width="12" height="12"/><rect x="240" y="456" width="12" height="12"/><rect x="264" y="456" width="12" height="12"/><rect x="300" y="456" width="12" height="12"/><rect x="360" y="456" width="12" height="12"/><rect x="384" y="456" width="12" height="12"/><rect x="420" y="456" width="12" height="12"/><rect x="444" y="456" width="12" height="12"/><rect x="468" y="456" width="12" height="12"/><rect x="480" y="456" width="12" height="12"/><rect x="48" y="468" width="12" height="12"/><rect x="120" y="468" width="12" height="12"/><rect x="144" y="468" width="12" height="12"/><rect x="156" y="468" width="12" height="12"/><rect x="192" y="468" width="12" height="12"/><rect x="216" y="468" width="12" height="12"/><rect x="300" y="468" width="12" height="12"/><rect x="336" y="468" width="12" height="12"/><rect x="372" y="468" width="12" height="12"/><rect x="384" y="468" width="12" height="12"/><rect x="396" y="468" width="12" height="12"/><rect x="420" y="468" width="12" height="12"/><rect x="480" y="468" width="12" height="12"/><rect x="48" y="480" width="12" height="12"/><rect x="60" y="480" width="12" height="12"/><rect x="72" y="480" width="12" height="12"/><rect x="84" y="480" width="12" height="12"/><rect x="96" y="480" width="12" height="12"/><rect x="108" y="480" width="12" height="12"/><rect x="120" y="480" width="12" height="12"/><rect x="180" y="480" width="12" height="12"/><rect x="204" y="480" width="12" height="12"/><rect x="228" y="480" width="12" height="12"/><rect x="240" y="480" width="12" height="12"/><rect x="252" y="480" width="12" height="12"/><rect x="288" y="480" width="12" height="12"/><rect x="348" y="480" width="12" height="12"/><rect x="396" y="480" width="12" height="12"/><rect x="432" y="480" width="12" height="12"/><rect x="444" y="480" width="12" height="12"/><rect x="456" y="480" width="12" height="12"/><rect x="468" y="480" width="12" height="12"/><rect x="480" y="480" width="12" height="12"/></g></svg>